<svg width="100" height="100" viewBox="0 0 100 100" fill="none" xmlns="http://www.w3.org/2000/svg">
<path d="M0 50C0 63.2608 5.26784 75.9785 14.6447 85.3553C24.0215 94.7322 36.7392 100 50 100C63.2608 100 75.9785 94.7322 85.3553 85.3553C94.7322 75.9785 100 63.2608 100 50C100 36.7392 94.7322 24.0215 85.3553 14.6447C75.9785 5.26784 63.2608 0 50 0C36.7392 0 24.0215 5.26784 14.6447 14.6447C5.26784 24.0215 0 36.7392 0 50H0Z" fill="#60D026"/>
<path d="M73.1845 33.2588H65.4905V28.1294C65.4905 25.311 63.1794 23 60.3611 23H39.8342C37.0158 23 34.7048 25.311 34.7048 28.1294V33.2588H27.0107C24.1924 33.2588 21.8813 35.5698 21.8813 38.3881V46.0822H78.3139V38.3881C78.3139 35.5698 76.0123 33.2588 73.1845 33.2588ZM60.3611 33.2588H39.8342V29.407C39.8342 28.6367 40.3509 28.12 41.1212 28.12H59.074C59.8444 28.12 60.3611 28.6367 60.3611 29.407V33.2588ZM59.074 52.4986C59.074 57.3744 54.9687 61.4797 50.0929 61.4797C45.2172 61.4797 41.1118 57.3744 41.1118 52.4986C41.1118 51.9819 41.1118 51.7283 41.3655 51.2116H21.8813V71.7385C21.8813 74.5568 24.1924 76.8679 27.0107 76.8679H73.1845C76.0029 76.8679 78.3139 74.5568 78.3139 71.7385V51.221H58.8204C59.074 51.7283 59.074 51.9913 59.074 52.4986Z" fill="white"/>
<path d="M53.9446 52.4987C53.9446 51.982 53.9446 51.7284 53.6909 51.2117H46.5041C46.2505 51.7284 46.2505 51.982 46.2505 52.4987C46.2505 54.5467 48.0448 56.3504 50.1022 56.3504C52.1502 56.3504 53.9446 54.5561 53.9446 52.4987Z" fill="white"/>
</svg>
