<svg width="100" height="100" viewBox="0 0 100 100" fill="none" xmlns="http://www.w3.org/2000/svg">
<path d="M0 50C0 63.2608 5.26784 75.9785 14.6447 85.3553C24.0215 94.7322 36.7392 100 50 100C63.2608 100 75.9785 94.7322 85.3553 85.3553C94.7322 75.9785 100 63.2608 100 50C100 36.7392 94.7322 24.0215 85.3553 14.6447C75.9785 5.26784 63.2608 0 50 0C36.7392 0 24.0215 5.26784 14.6447 14.6447C5.26784 24.0215 0 36.7392 0 50H0Z" fill="#FD846F"/>
<path d="M62.9548 36.2833C62.9548 43.6952 56.9667 49.6405 49.4976 49.6405C42.0286 49.6405 36.0381 43.6952 36.0381 36.2833C36.0381 28.869 42.0286 23 49.4976 23C56.9667 23 62.9571 28.869 62.9571 36.2833H62.9548ZM71.0333 77.0452H27.2881C25.3643 77.0452 24.5 75.6167 24.5 73.7143C24.5 62.3905 32.8643 53.4476 44.0167 53.4476H54.3024C65.4548 53.4476 75.1643 62.4857 75.1643 73.8095V73.619C75.2595 75.5238 72.9524 76.95 71.031 77.0452H71.0333Z" fill="white"/>
</svg>
